<?xml version="1.0" encoding="UTF-8" standalone="no"?>
<svg
   version="1.1"
   x="0px"
   y="0px"
   viewBox="0 0 19.423386 19.423386"
   enable-background="new 0 0 100 100"
   xml:space="preserve"
   id="svg18"
   sodipodi:docname="map-marker.svg"
   width="19.423386"
   height="19.423386"
   inkscape:version="1.2.2 (b0a84865, 2022-12-01)"
   xmlns:inkscape="http://www.inkscape.org/namespaces/inkscape"
   xmlns:sodipodi="http://sodipodi.sourceforge.net/DTD/sodipodi-0.dtd"
   xmlns="http://www.w3.org/2000/svg"
   xmlns:svg="http://www.w3.org/2000/svg"><defs
     id="defs22" /><sodipodi:namedview
     id="namedview20"
     pagecolor="#ffffff"
     bordercolor="#000000"
     borderopacity="0.25"
     inkscape:showpageshadow="2"
     inkscape:pageopacity="0.0"
     inkscape:pagecheckerboard="0"
     inkscape:deskcolor="#d1d1d1"
     showgrid="false"
     inkscape:zoom="7.0166661"
     inkscape:cx="20.095013"
     inkscape:cy="18.171023"
     inkscape:window-width="1309"
     inkscape:window-height="629"
     inkscape:window-x="0"
     inkscape:window-y="25"
     inkscape:window-maximized="0"
     inkscape:current-layer="svg18" /><g
     id="g12"
     transform="matrix(0.21581539,0,0,0.21581539,-1.0790769,-1.0790769)"><g
       id="g10"><g
         id="g8"><path
           d="m 22.891,81.238 c 6.655,3.331 16.364,5.57 27.109,5.57 8.073,0 15.545,-1.256 21.545,-3.277 6.055,-2.075 10.636,-4.97 13.036,-7.809 1.582,-1.911 2.236,-3.604 2.236,-5.297 0,-1.748 -0.709,-3.495 -2.345,-5.461 -1.636,-1.911 -4.309,-3.877 -7.745,-5.516 -2.018,-0.983 -2.891,-3.386 -1.909,-5.461 0.982,-2.021 3.436,-2.894 5.455,-1.911 4.2,2.021 7.745,4.478 10.364,7.536 2.672,3.003 4.363,6.771 4.363,10.813 0,3.932 -1.636,7.591 -4.2,10.595 -2.509,3.004 -5.945,5.461 -10.036,7.536 C 72.636,92.597 61.836,94.945 50,95 41.109,95 32.818,93.635 25.836,91.286 18.8,88.883 13.018,85.498 9.145,81.019 6.636,78.016 5,74.357 5,70.425 5,66.438 6.636,62.779 9.2,59.776 c 2.564,-3.004 6,-5.461 10.091,-7.536 2.073,-0.983 4.527,-0.164 5.509,1.857 0.982,2.021 0.164,4.478 -1.855,5.516 -3.382,1.638 -5.945,3.604 -7.527,5.461 -1.582,1.911 -2.236,3.604 -2.236,5.352 0,1.693 0.655,3.386 2.236,5.297 1.581,1.911 4.146,3.822 7.473,5.515 z"
           id="path2" /><path
           d="m 49.782,43.774 c -7.145,0 -12.982,-5.789 -12.982,-12.998 0,-7.209 5.836,-12.998 12.982,-13.052 7.2,0.055 13.036,5.843 13.036,13.052 0,7.209 -5.836,12.998 -13.036,12.998 z m 0,-17.858 c -2.673,0.055 -4.8,2.184 -4.8,4.86 0,2.676 2.127,4.806 4.8,4.806 2.673,0 4.855,-2.13 4.855,-4.806 0,-2.676 -2.182,-4.805 -4.855,-4.86 z"
           id="path4" /><path
           d="m 49.782,13.192 c -5.236,0.055 -9.655,2.13 -12.873,5.461 -3.218,3.331 -5.127,7.864 -5.073,12.561 0,2.621 0.545,5.352 1.909,8.028 l 15.436,30.965 0.6,0.328 0.6,-0.328 15.491,-30.965 c 1.309,-2.676 1.909,-5.407 1.909,-8.028 0,-4.697 -1.909,-9.229 -5.127,-12.561 -3.218,-3.332 -7.581,-5.407 -12.872,-5.461 z m 0,65.534 c -3.055,0.055 -6.327,-1.693 -7.909,-4.86 L 26.436,42.9 c -1.909,-3.823 -2.782,-7.809 -2.782,-11.687 0,-6.936 2.727,-13.434 7.364,-18.24 C 35.655,8.167 42.255,5 49.782,5 c 7.527,0 14.182,3.167 18.764,7.973 4.636,4.806 7.418,11.305 7.418,18.24 0,3.877 -0.873,7.864 -2.782,11.687 L 57.691,73.865 c -1.582,3.168 -4.8,4.915 -7.909,4.861 z"
           id="path6" /></g></g></g></svg>
