<?xml version="1.0" encoding="UTF-8" standalone="no"?>
<!-- Generator: Adobe Illustrator 19.2.1, SVG Export Plug-In . SVG Version: 6.00 Build 0)  -->

<svg
   version="1.1"
   id="layer"
   x="0px"
   y="0px"
   viewBox="0 0 90.355322 22.374344"
   xml:space="preserve"
   sodipodi:docname="github-logo-vector.svg"
   width="90.355324"
   height="22.374344"
   inkscape:version="1.2.2 (b0a84865, 2022-12-01)"
   xmlns:inkscape="http://www.inkscape.org/namespaces/inkscape"
   xmlns:sodipodi="http://sodipodi.sourceforge.net/DTD/sodipodi-0.dtd"
   xmlns="http://www.w3.org/2000/svg"
   xmlns:svg="http://www.w3.org/2000/svg"><defs
   id="defs11" /><sodipodi:namedview
   id="namedview9"
   pagecolor="#ffffff"
   bordercolor="#000000"
   borderopacity="0.25"
   inkscape:showpageshadow="2"
   inkscape:pageopacity="0.0"
   inkscape:pagecheckerboard="0"
   inkscape:deskcolor="#d1d1d1"
   showgrid="false"
   inkscape:zoom="6.3006136"
   inkscape:cx="103.48198"
   inkscape:cy="56.89922"
   inkscape:window-width="2347"
   inkscape:window-height="1205"
   inkscape:window-x="0"
   inkscape:window-y="25"
   inkscape:window-maximized="0"
   inkscape:current-layer="layer" />
<style
   type="text/css"
   id="style2">
	.st0{fill:#24292E;}
	.st1{fill-rule:evenodd;clip-rule:evenodd;fill:#24292E;}
</style>
<path
   class="st0"
   d="m 55.393638,17.239933 h -0.03012 c 0.01505,0 0.01505,0.01506 0.03012,0.01506 h 0.01505 z m 0,0.01506 c -0.120454,0 -0.436645,0.06023 -0.767891,0.06023 -1.038914,0 -1.400275,-0.481815 -1.400275,-1.114197 v -4.185765 h 2.122996 c 0.120454,0 0.210795,-0.105397 0.210795,-0.255964 V 9.4857275 c 0,-0.1204532 -0.105398,-0.2258505 -0.210795,-0.2258505 H 53.225472 V 6.4292154 c 0,-0.1053969 -0.07528,-0.1656238 -0.195737,-0.1656238 h -2.890889 c -0.120454,0 -0.180681,0.075283 -0.180681,0.1656238 v 2.9059448 c 0,0 -1.460501,0.3613611 -1.55084,0.3764178 -0.105397,0.030114 -0.165624,0.1204539 -0.165624,0.2258513 v 1.8218617 c 0,0.150567 0.105397,0.255964 0.225851,0.255964 h 1.475558 v 4.39656 c 0,3.267305 2.273562,3.598554 3.824404,3.598554 0.707665,0 1.565897,-0.225852 1.701408,-0.301134 0.07528,-0.03012 0.120454,-0.120454 0.120454,-0.210795 v -2.002542 c 0,-0.120454 -0.07528,-0.210794 -0.195738,-0.240908 z m 31.709435,-2.936059 c 0,-2.42413 -0.978686,-2.740321 -2.002544,-2.634924 -0.798005,0.04517 -1.445443,0.451701 -1.445443,0.451701 v 4.712749 c 0,0 0.647438,0.451703 1.626124,0.481816 1.370156,0.03012 1.821863,-0.466759 1.821863,-3.011342 z m 3.252249,-0.210794 c 0,4.592297 -1.490615,5.902231 -4.080368,5.902231 -2.198283,0 -3.372708,-1.114197 -3.372708,-1.114197 0,0 -0.04516,0.617325 -0.120452,0.69261 -0.04516,0.07528 -0.105394,0.105396 -0.195738,0.105396 h -1.97243 c -0.135509,0 -0.25596,-0.105396 -0.25596,-0.22585 l 0.03009,-14.860974 c 0,-0.1204536 0.105394,-0.2258506 0.225846,-0.2258506 h 2.845721 c 0.120452,0 0.225854,0.105397 0.225854,0.2258506 v 5.0439972 c 0,0 1.099137,-0.7076656 2.710205,-0.7076656 l -0.01508,-0.030114 c 1.59601,0 3.974974,0.6022682 3.974974,5.1945644 z M 78.686369,9.2749344 h -2.815607 c -0.150564,0 -0.225848,0.1053973 -0.225848,0.2559645 v 7.2723901 c 0,0 -0.737779,0.511929 -1.746578,0.511929 -0.993743,0 -1.294877,-0.451702 -1.294877,-1.460501 V 9.5007849 c 0,-0.1204532 -0.105397,-0.2258505 -0.22585,-0.2258505 h -2.860775 c -0.120454,0 -0.225852,0.1053973 -0.225852,0.2258505 v 6.8508041 c 0,2.936058 1.641181,3.673837 3.899688,3.673837 1.867033,0 3.372703,-1.023857 3.372703,-1.023857 0,0 0.07525,0.526986 0.105394,0.602269 0.03009,0.06023 0.120459,0.120454 0.210796,0.120454 h 1.791748 c 0.150567,0 0.225854,-0.105397 0.225854,-0.225851 l 0.03009,-9.9976561 C 78.94233,9.3803317 78.821848,9.2749344 78.686339,9.2749344 Z M 46.976937,9.259877 h -2.845718 c -0.120454,0 -0.22585,0.1204539 -0.22585,0.2710212 v 9.8169758 c 0,0.27102 0.18068,0.361361 0.40653,0.361361 h 2.574698 c 0.27102,0 0.331247,-0.120454 0.331247,-0.361361 V 9.4857275 C 47.202787,9.3652743 47.097391,9.259877 46.976937,9.259877 Z m -1.41533,-4.5320699 c -1.023857,0 -1.851976,0.8130624 -1.851976,1.8519755 0,1.0238561 0.813063,1.8519756 1.851976,1.8519756 1.008799,0 1.821861,-0.8130629 1.821861,-1.8519756 0,-1.0238563 -0.813062,-1.8519755 -1.821861,-1.8519755 z M 67.634744,4.3965595 h -2.830661 c -0.120454,0 -0.225851,0.1053971 -0.225851,0.2258507 V 10.087996 H 60.151559 V 4.6224102 c 0,-0.1204536 -0.105397,-0.2258507 -0.22585,-0.2258507 h -2.845718 c -0.120454,0 -0.225852,0.1053971 -0.225852,0.2258507 V 19.483383 c 0,0.120454 0.120454,0.225852 0.225852,0.225852 h 2.845718 c 0.120453,0 0.22585,-0.105398 0.22585,-0.225852 v -6.353931 h 4.426673 l -0.03011,6.353931 c 0,0.120454 0.105398,0.225852 0.225851,0.225852 h 2.845719 c 0.120453,0 0.22585,-0.105398 0.22585,-0.225852 V 4.6224102 C 67.860595,4.5019566 67.755197,4.3965595 67.634744,4.3965595 Z M 42.384641,10.976342 v 7.678923 c 0,0.04517 -0.01506,0.150566 -0.07528,0.165623 0,0 -1.671296,1.189481 -4.426672,1.189481 -3.327534,0 -7.287449,-1.038913 -7.287449,-7.91983 0,-6.8809172 3.447988,-8.2962479 6.82069,-8.2811912 2.921002,0 4.095425,0.6624952 4.276106,0.7829489 0.04518,0.075283 0.07528,0.1204537 0.07528,0.1806806 l -0.542042,2.3940169 c 0,0.1204538 -0.120454,0.2710208 -0.271021,0.2258507 -0.481815,-0.1505671 -1.204537,-0.4366446 -2.905945,-0.4366446 -1.97243,0 -4.080369,0.5570982 -4.080369,4.9988277 0,4.426673 2.002543,4.953659 3.447986,4.953659 1.234651,0 1.671296,-0.150568 1.671296,-0.150568 v -3.071568 h -1.972429 c -0.150567,0 -0.255965,-0.105398 -0.255965,-0.225852 v -2.4693 c 0,-0.120453 0.105398,-0.225851 0.255965,-0.225851 h 5.013884 c 0.150567,-0.01505 0.255965,0.09034 0.255965,0.210794 z m 0,0"
   id="path4"
   style="stroke-width:0.150568" />
<path
   class="st1"
   d="M 11.473214,0 C 5.1343383,0 0,5.1343383 0,11.473214 c 0,5.074112 3.282363,9.365273 7.8445465,10.886001 0.572155,0.09034 0.7980055,-0.240907 0.7980055,-0.542041 0,-0.271021 -0.015058,-1.174424 -0.015058,-2.138054 C 5.7516634,20.206106 4.9988279,18.971456 4.7729773,18.339073 4.6374669,18.007826 4.0803686,16.983969 3.5985539,16.712949 3.1920226,16.502154 2.6198676,15.960113 3.5834971,15.945056 c 0.9034027,-0.01505 1.5508412,0.82812 1.7616351,1.174424 1.0389131,1.731522 2.6800949,1.249707 3.3425898,0.948573 0.1053973,-0.737779 0.406531,-1.249707 0.7377789,-1.535784 -2.5445842,-0.286079 -5.2246786,-1.279821 -5.2246786,-5.661323 0,-1.2497079 0.4517013,-2.2886206 1.1744234,-3.0866268 C 5.254792,7.4982419 4.8633175,6.3238185 5.4956993,4.7428638 c 0,0 0.9636295,-0.3011342 3.1619094,1.1744235 0.9184594,-0.2559641 1.8971453,-0.3914744 2.8607753,-0.3914744 0.978686,0 1.942315,0.1355103 2.860774,0.3914744 2.19828,-1.4906143 3.146854,-1.1744235 3.146854,-1.1744235 0.632381,1.5809547 0.22585,2.7553781 0.120454,3.0414554 0.737777,0.7980062 1.174422,1.8218622 1.174422,3.0866268 0,4.396559 -2.680094,5.375244 -5.239735,5.661323 0.421587,0.361361 0.782948,1.038912 0.782948,2.122996 0,1.535784 -0.01505,2.770435 -0.01505,3.146852 0,0.301134 0.210793,0.662495 0.782949,0.542041 4.667578,-1.580954 7.814432,-5.962457 7.814432,-10.886001 C 22.946428,5.1343383 17.812089,0 11.473214,0 Z m 0,0"
   id="path6"
   style="stroke-width:0.150568" />
</svg>
